<svg 
 xmlns="http://www.w3.org/2000/svg"
 xmlns:xlink="http://www.w3.org/1999/xlink"
 width="18px" height="12px">
<path fill-rule="evenodd"  fill="rgb(161, 158, 158)"
 d="M16.772,5.426 L11.712,0.235 C11.403,-0.081 10.902,-0.081 10.594,0.235 C10.285,0.552 10.285,1.065 10.594,1.382 L14.304,5.188 L0.791,5.188 C0.354,5.188 -0.000,5.551 -0.000,5.999 C-0.000,6.447 0.354,6.810 0.791,6.810 L14.304,6.810 L10.594,10.615 C10.285,10.932 10.285,11.445 10.594,11.762 C10.748,11.920 10.950,12.000 11.153,12.000 C11.355,12.000 11.558,11.920 11.712,11.762 L16.772,6.572 C17.080,6.255 17.080,5.742 16.772,5.426 L16.772,5.426 Z"/>
</svg>