<svg 
 xmlns="http://www.w3.org/2000/svg"
 xmlns:xlink="http://www.w3.org/1999/xlink"
 width="19px" height="26px">
<path fill-rule="evenodd"  fill="rgb(228, 83, 57)"
 d="M18.291,26.000 L0.737,26.000 C0.340,26.000 -0.000,25.660 -0.000,25.263 L-0.000,0.736 C-0.000,0.340 0.340,-0.000 0.737,-0.000 L13.640,-0.000 L13.640,3.285 C13.640,4.418 14.576,5.381 15.739,5.381 L19.000,5.381 L19.000,25.263 C19.000,25.660 18.688,26.000 18.291,26.000 ZM5.615,10.507 C5.161,10.394 3.970,10.422 3.403,10.422 C2.949,10.422 2.751,10.592 2.751,11.046 L2.751,14.954 C2.751,15.804 3.772,15.804 3.772,14.954 L3.772,13.510 L4.707,13.510 C5.360,13.510 5.813,13.396 6.125,13.113 C6.863,12.518 6.863,10.847 5.615,10.507 ZM10.351,10.507 C9.812,10.366 8.734,10.422 8.110,10.422 C7.685,10.422 7.487,10.592 7.487,11.046 L7.487,14.756 C7.487,15.265 7.600,15.492 8.139,15.492 L10.095,15.435 C11.003,15.294 11.570,14.642 11.740,13.765 C12.024,12.490 11.655,10.847 10.351,10.507 ZM15.739,10.422 L13.328,10.422 C12.903,10.422 12.704,10.592 12.704,11.046 L12.704,14.954 C12.704,15.152 12.761,15.322 12.846,15.435 C13.073,15.690 13.725,15.690 13.725,14.954 L13.725,13.283 L15.427,13.283 C16.051,13.283 16.051,12.518 15.427,12.518 L13.725,12.518 L13.725,11.215 L15.739,11.215 C15.909,11.215 16.022,11.187 16.107,11.102 C16.306,10.932 16.306,10.422 15.739,10.422 ZM9.982,14.614 C9.642,14.727 8.933,14.699 8.507,14.699 L8.507,11.272 L9.188,11.272 C9.784,11.272 10.237,11.329 10.549,11.839 C10.890,12.405 10.946,14.274 9.982,14.614 ZM3.772,12.745 L3.800,12.745 L3.800,11.187 L4.481,11.187 C5.161,11.187 5.587,11.329 5.587,11.952 C5.587,12.886 4.509,12.745 3.772,12.745 ZM14.860,3.257 L14.860,0.878 L18.121,4.135 L15.739,4.135 C15.257,4.135 14.860,3.767 14.860,3.257 Z"/>
</svg>